<svg width="28" height="28" viewBox="0 0 28 28" fill="none" xmlns="http://www.w3.org/2000/svg">
<g id="droplets-03">
<path id="Icon" d="M14.6533 7.09366C15.4557 5.81164 16.0245 4.39754 16.3333 2.91699C16.9167 5.83366 18.6667 8.63366 21 10.5003C23.3333 12.367 24.5 14.5837 24.5 16.917C24.5067 18.5297 24.0343 20.108 23.1429 21.4519C22.2515 22.7959 20.9811 23.8448 19.4928 24.4659C18.0045 25.087 16.3653 25.2521 14.783 24.9405C13.2007 24.6288 11.7466 23.8544 10.605 22.7153M8.16667 18.4103C10.7333 18.4103 12.8333 16.2753 12.8333 13.6853C12.8333 12.332 12.1683 11.0487 10.8383 9.96366C9.50833 8.87866 8.505 7.26866 8.16667 5.57699C7.82833 7.26866 6.83667 8.89033 5.495 9.96366C4.15333 11.037 3.5 12.3437 3.5 13.6853C3.5 16.2753 5.6 18.4103 8.16667 18.4103Z" stroke="#01588C" stroke-width="2" stroke-linecap="round" stroke-linejoin="round"/>
</g>
</svg>
