<svg width="372" height="400" viewBox="0 0 372 400" fill="none" xmlns="http://www.w3.org/2000/svg">
<path d="M74.2014 37.3076V84.8401L-6.19971 128.525V80.993L74.2014 37.3076Z" fill="#2B4A75"/>
<path d="M-6.14889 80.9925L-69.6794 43.6853L10.7217 0L74.2016 37.3072L-6.14889 80.9925Z" fill="#0B6296"/>
<g style="mix-blend-mode:multiply">
<path d="M225.885 236.599L162.405 199.292L242.755 155.606L249.24 236.599H225.885Z" fill="#014F7E"/>
</g>
<path d="M329.591 145.382V192.914L249.24 236.6V189.067L329.591 145.382Z" fill="#2B4A75"/>
<path d="M249.241 189.067V236.6L185.761 199.292V151.811L249.241 189.067Z" fill="#004E82"/>
<path d="M249.24 189.117L185.76 151.81L266.111 108.074L329.641 145.381L249.24 189.117Z" fill="#0B6296"/>
<g style="mix-blend-mode:multiply">
<path d="M301.675 313.846L244.629 280.285L291.188 254.975L325.03 313.846H301.675Z" fill="#014F7E"/>
</g>
<path d="M371.639 260.341V288.536L325.03 313.847V285.651L371.639 260.341Z" fill="#2B4A75"/>
<path d="M325.03 285.651V313.847L267.985 280.285V252.09L325.03 285.651Z" fill="#004E82"/>
<path d="M325.081 285.651L267.985 252.14L314.543 226.779L371.64 260.341L325.081 285.651Z" fill="#0B6296"/>
<g style="mix-blend-mode:multiply">
<path d="M261.5 428.501L204.403 394.991L281.055 353.33L284.855 428.501H261.5Z" fill="#014F7E"/>
</g>
<path d="M361.456 358.696V386.892L284.855 428.502V400.306L361.456 358.696Z" fill="#2B4A75"/>
<path d="M284.855 400.306V428.501L227.809 394.99V366.795L284.855 400.306Z" fill="#004E82"/>
<path d="M284.855 400.306L227.809 366.795L304.411 325.135L361.456 358.696L284.855 400.306Z" fill="#0B6296"/>
<g style="mix-blend-mode:multiply">
<path d="M158.2 360.821L4.84473 272.337L69.2872 235.182L181.555 360.821H158.2Z" fill="#014F7E"/>
</g>
<path d="M245.997 254.671V323.666L181.555 360.822V291.826L245.997 254.671Z" fill="#2B4A75"/>
<path d="M181.555 291.826V360.822L28.2 272.337V203.342L181.555 291.826Z" fill="#004E82"/>
<path d="M181.555 291.826L28.2002 203.342L92.6427 166.187L245.998 254.671L181.555 291.826Z" fill="#0B6296"/>
<path d="M33.3677 163.656V210.986L-34.5198 250.065V202.735L33.3677 163.656Z" fill="#2B4A75"/>
<path d="M-34.4695 202.735L-139.645 142.092L-71.757 103.013L33.3674 163.656L-34.4695 202.735Z" fill="#0B6296"/>
</svg>
