<svg width="228" height="357" viewBox="0 0 228 357" fill="none" xmlns="http://www.w3.org/2000/svg">
<path d="M323.394 71.3556C333.213 71.6836 343.108 72.1704 353.286 72.7816C350.739 64.2657 347.789 56.0058 344.264 47.9544C335.022 48.8431 325.784 50.0545 316.378 51.5407C315.961 51.6091 315.605 51.6483 315.188 51.7167C284.149 56.8656 252.31 65.3771 219.23 76.164C258.848 71.4135 290.766 70.3214 323.369 71.3027L323.394 71.3556Z" fill="#FFBA21"/>
<path d="M365.078 128.195C363.88 116.055 362.194 104.147 359.81 92.5063C350.807 91.5312 341.106 90.8224 330.795 90.4041C289.476 88.8947 237.972 93.0669 181.928 111.651C248.989 105.535 295.687 109.222 336.153 119.501C346.093 121.976 355.67 124.948 365.103 128.248L365.078 128.195Z" fill="#FFBA21"/>
<path d="M284.855 423.398C284.683 436.124 283.831 449.627 282.227 464.07C282.151 465.014 281.978 466.068 281.866 467.094C283.312 465.564 284.636 464.093 285.97 462.486C291.3 456.518 296.159 450.189 300.562 443.689C320.522 414.43 331.995 380.709 334.291 348.171C335.895 326.79 333.548 305.923 327.034 287.166C305.98 225.974 241.549 187.008 127.483 225.374C127.483 225.374 288.119 220.388 284.819 423.48L284.855 423.398Z" fill="#FFBA21"/>
<path d="M111.479 116.783C116.499 111.74 124.39 107.537 131.534 104.598C118.351 109.174 111.132 111.955 105.439 118.42C97.0884 127.964 94.3054 136.613 82.5629 143.747C101.201 140.405 119.432 131.16 111.453 116.73L111.479 116.783Z" fill="#FFBA21"/>
<path d="M183.929 39.6999C219.36 21.2472 259.527 12.6051 292.65 14.0523L327.896 19.8083C329.56 20.3147 331.224 20.8211 332.851 21.4094C338.856 23.4847 343.237 25.2943 348.562 28.1463C344.134 27.6561 339.681 27.1131 335.426 26.6707C334.405 26.572 333.445 26.4442 332.425 26.3455C322.798 25.5917 312.108 25.5339 303.515 25.4874L303.251 25.486C303.078 25.4383 302.87 25.4725 302.636 25.4538C289.355 25.4085 276.797 26.2522 265.276 27.7048C194.559 36.5306 147.303 68.252 130.257 78.1003C129.671 78.4435 129.024 78.8158 128.438 79.1591C128.061 79.468 127.572 79.7003 127.205 79.8745C126.838 80.0487 126.485 80.411 126.119 80.5852C125.558 80.9812 124.997 81.3772 124.569 81.5804C123.911 82.0875 123.545 82.2618 123.545 82.2618C127.145 76.5959 163.008 51.3245 171.012 44.9933C142.615 57.1219 119.28 71.7085 100.69 87.6077C100.618 87.7716 100.434 87.8587 100.312 87.9167C89.7438 96.8925 80.6059 106.356 73.017 115.926C71.445 118.294 69.6428 120.966 67.4162 124.163C59.0064 136.264 60.9259 156.23 68.9027 180.906C64.672 174.681 60.33 168.379 56.013 162.131C20.7103 189.211 -2.79556 215.421 26.018 244.852C27.1055 214.184 62.4702 198.746 89.4561 184.434C70.44 196.127 52.9192 207.497 40.5322 223.367C67.1613 197.425 125.588 178.811 146.845 172.15C176.121 162.975 224.08 160.487 234.619 159.176C234.889 159.113 235.184 159.103 235.453 159.039C235.687 159.058 235.956 158.995 236.165 158.961C216.97 154.981 193.508 154.002 172.808 154.11C165.253 154.132 147.885 155.575 142.695 156.16C146.987 154.316 201.083 142.039 211.813 140.184C254.387 132.667 299.701 137.855 342.34 149.241C350.286 151.302 358.149 153.662 365.792 156.191L365.843 156.297C366.022 169.763 365.48 183.443 364.383 197.061C362.643 218.313 359.612 239.529 355.766 260.29C350.521 249.878 344.307 240.899 337.173 233.136C296.791 188.971 230.763 184.805 184.255 188.613C184.169 188.589 184.108 188.619 184.108 188.619C183.813 188.629 183.518 188.639 183.249 188.702C183.04 188.737 182.893 188.742 182.771 188.8C168.537 190.375 154.087 192.441 139.878 195.171C139.252 195.274 138.652 195.429 138.113 195.556C138.087 195.503 137.965 195.561 137.965 195.561L137.721 195.677C137.512 195.711 137.364 195.716 137.242 195.774C137.095 195.78 136.948 195.785 136.826 195.843C132.843 196.762 130.65 197.35 130.65 197.35L131.028 197.041C116.049 200.202 101.152 204.166 86.5496 209.223C52.8653 220.945 22.6868 250.454 39.304 268.561C-17.561 229.438 -10.0327 199.082 45.3658 150.914C44.2207 107.82 100.761 49.1235 172.057 13.7625C164.139 20.1176 153.878 32.5785 150.424 38.2393C183.96 14.8511 229.968 -1.36398 259.964 0.59619C237.868 5.64664 210.368 19.0346 183.929 39.6999Z" fill="#FFBA21"/>
</svg>
