<svg width="25" height="24" viewBox="0 0 25 24" fill="none" xmlns="http://www.w3.org/2000/svg">
<g id="logistics" clip-path="url(#clip0_581_9332)">
<path id="Vector" d="M24.1997 5.08539C24.2033 5.05299 24.2033 5.02029 24.1997 4.98789C24.2024 4.96798 24.2024 4.9478 24.1997 4.92789C24.1841 4.90855 24.1665 4.89095 24.1472 4.87539C24.1223 4.85604 24.0945 4.84084 24.0647 4.83039L12.3272 0.457887C12.2448 0.4281 12.1546 0.4281 12.0722 0.457887L0.439707 4.74789C0.409961 4.75834 0.382102 4.77354 0.357207 4.79289L0.274707 4.86789C0.272028 4.8878 0.272028 4.90798 0.274707 4.92789C0.271116 4.96029 0.271116 4.99299 0.274707 5.02539H0.199707V18.8554C0.200564 18.9284 0.223135 18.9995 0.264543 19.0596C0.30595 19.1197 0.364318 19.1661 0.432207 19.1929L12.0722 23.5429C12.1494 23.573 12.235 23.573 12.3122 23.5429L23.9522 19.1929C24.0201 19.1661 24.0785 19.1197 24.1199 19.0596C24.1613 18.9995 24.1838 18.9284 24.1847 18.8554V5.09289L24.1997 5.08539ZM11.8397 22.6804L0.949707 18.6004V5.61789L2.25471 6.10539L3.75471 6.66039V11.6629C3.75388 11.7239 3.76859 11.7842 3.79746 11.838C3.82632 11.8918 3.86839 11.9373 3.91971 11.9704C3.97301 11.998 4.03217 12.0124 4.09221 12.0124C4.15224 12.0124 4.2114 11.998 4.26471 11.9704L5.95221 11.2579L7.69971 13.4179C7.73443 13.4574 7.77708 13.4892 7.82489 13.5112C7.8727 13.5331 7.9246 13.5448 7.97721 13.5454C8.01941 13.5525 8.06251 13.5525 8.10471 13.5454C8.17459 13.5207 8.23514 13.475 8.2781 13.4146C8.32105 13.3542 8.34431 13.282 8.34471 13.2079V8.40789L11.8397 9.75039V22.6804ZM7.63221 8.13039V12.1954L6.28221 10.6129C6.24673 10.5753 6.20359 10.5458 6.15571 10.5264C6.10783 10.507 6.05633 10.4981 6.00471 10.5004C5.95746 10.4934 5.90945 10.4934 5.86221 10.5004L4.42971 11.1004V6.93039L7.63221 8.13039ZM5.14221 6.42039L7.87971 5.47539L10.5122 6.53289L7.99221 7.50039L5.14221 6.42039ZM12.1997 9.07539L9.01971 7.87539L11.6372 6.88539C11.7059 6.85892 11.7653 6.81279 11.808 6.75277C11.8507 6.69275 11.8748 6.62149 11.8772 6.54789C11.8774 6.47466 11.8552 6.40313 11.8137 6.34282C11.7721 6.28252 11.7132 6.23632 11.6447 6.21039L8.02221 4.75539C7.94048 4.72204 7.84894 4.72204 7.76721 4.75539L4.07721 6.00039L1.60971 5.09289L12.1997 1.18539L22.7972 5.09289L12.1997 9.07539ZM23.4497 18.6004L12.5597 22.6804V9.75039L21.4847 6.39789L23.4722 5.64789L23.4497 18.6004Z" fill="#01588C" stroke="#01588C" stroke-width="0.6"/>
<path id="Vector_2" d="M20.1348 9.75043C20.0996 9.66024 20.0302 9.5876 19.9417 9.54828C19.8532 9.50895 19.7528 9.50613 19.6623 9.54043L16.1223 10.8379C16.0325 10.8717 15.9595 10.9393 15.9189 11.0262C15.8783 11.113 15.8732 11.2124 15.9048 11.3029C15.9295 11.3728 15.9752 11.4334 16.0356 11.4763C16.096 11.5193 16.1682 11.5425 16.2423 11.5429C16.2844 11.5507 16.3276 11.5507 16.3698 11.5429L19.9173 10.2454C19.9647 10.228 20.0081 10.2013 20.0449 10.1667C20.0817 10.1321 20.1111 10.0905 20.1314 10.0442C20.1517 9.99801 20.1625 9.94816 20.1631 9.89767C20.1637 9.84719 20.154 9.79711 20.1348 9.75043ZM18.5523 14.9554L18.4848 14.9104C18.4706 14.8939 18.4526 14.881 18.4323 14.8729C18.3901 14.8661 18.347 14.8661 18.3048 14.8729H18.2073H18.1623H18.1248L18.0423 14.9254L16.9923 16.0504C16.9258 16.1202 16.8887 16.2128 16.8887 16.3092C16.8887 16.4055 16.9258 16.4982 16.9923 16.5679C17.0611 16.6279 17.1485 16.6623 17.2398 16.6654C17.2907 16.6657 17.3411 16.6551 17.3877 16.6344C17.4342 16.6137 17.4758 16.5834 17.5098 16.5454L17.9298 16.0954V18.0079C17.9288 18.0555 17.9374 18.1028 17.9551 18.1469C17.9728 18.191 17.9993 18.2311 18.033 18.2648C18.0666 18.2984 18.1067 18.3249 18.1508 18.3426C18.195 18.3603 18.2422 18.369 18.2898 18.3679C18.3377 18.3689 18.3853 18.3604 18.4299 18.3427C18.4744 18.3251 18.515 18.2987 18.5492 18.2652C18.5834 18.2316 18.6106 18.1916 18.6292 18.1474C18.6477 18.1033 18.6573 18.0558 18.6573 18.0079V16.1254L19.0773 16.5754C19.1107 16.609 19.1505 16.6356 19.1942 16.6538C19.238 16.672 19.2849 16.6813 19.3323 16.6813C19.3797 16.6813 19.4266 16.672 19.4703 16.6538C19.5141 16.6356 19.5538 16.609 19.5873 16.5754C19.6555 16.5066 19.6938 16.4136 19.6938 16.3167C19.6938 16.2198 19.6555 16.1268 19.5873 16.0579L18.5523 14.9554ZM21.2748 14.1154C21.2048 14.1196 21.1374 14.143 21.0798 14.1829L21.0198 14.2279L19.9698 15.3529C19.9015 15.4218 19.8633 15.5148 19.8633 15.6117C19.8633 15.7086 19.9015 15.8016 19.9698 15.8704C20.0386 15.9304 20.126 15.9648 20.2173 15.9679C20.2682 15.9682 20.3186 15.9576 20.3652 15.9369C20.4117 15.9162 20.4533 15.8859 20.4873 15.8479L20.9073 15.3979V17.3104C20.9063 17.358 20.9149 17.4053 20.9326 17.4494C20.9503 17.4935 20.9768 17.5336 21.0105 17.5673C21.0441 17.6009 21.0842 17.6274 21.1283 17.6451C21.1725 17.6628 21.2197 17.6715 21.2673 17.6704C21.3152 17.6714 21.3628 17.6629 21.4074 17.6452C21.4519 17.6276 21.4925 17.6012 21.5267 17.5677C21.5609 17.5341 21.5881 17.4941 21.6067 17.4499C21.6252 17.4058 21.6348 17.3583 21.6348 17.3104V15.4054L22.0548 15.8554C22.0882 15.889 22.128 15.9156 22.1717 15.9338C22.2155 15.952 22.2624 15.9613 22.3098 15.9613C22.3572 15.9613 22.4041 15.952 22.4478 15.9338C22.4916 15.9156 22.5313 15.889 22.5648 15.8554C22.633 15.7866 22.6713 15.6936 22.6713 15.5967C22.6713 15.4998 22.633 15.4068 22.5648 15.3379L21.5448 14.2504L21.4848 14.2054C21.4256 14.1547 21.3523 14.1233 21.2748 14.1154Z" fill="#01588C"/>
</g>
<defs>
<clipPath id="clip0_581_9332">
<rect width="24" height="24" fill="white" transform="translate(0.199707)"/>
</clipPath>
</defs>
</svg>
