<svg id="Layer_1" data-name="Layer 1" xmlns="http://www.w3.org/2000/svg" viewBox="0 0 788.64 312.12"><defs><style>.cls-1{fill:#fdb714;}.cls-2{fill:#fff;}</style></defs><g id="Group_5" data-name="Group 5"><g id="Group_1" data-name="Group 1"><path id="Path_1" data-name="Path 1" class="cls-1" d="M193.61,361.89c-4.26,2.54-8.53,5.19-12.87,7.95A143.82,143.82,0,0,1,179.5,355c4.27-1.78,8.58-3.41,13-4.9a5.44,5.44,0,0,1,.57-.19,286.81,286.81,0,0,1,47.38-10.76A303.15,303.15,0,0,0,193.61,361.89Z" transform="translate(-173.36 -241.07)"/><path id="Path_2" data-name="Path 2" class="cls-1" d="M187.13,400.88c-2-6.47-3.76-12.94-5.14-19.44,3.75-2.66,7.88-5.38,12.35-8.08a187.25,187.25,0,0,1,70-25.18c-30.83,13.12-50.61,26.25-66.28,41.27C194.19,393.12,190.59,396.92,187.13,400.88Z" transform="translate(-173.36 -241.07)"/><path id="Path_3" data-name="Path 3" class="cls-2" d="M284.24,531.68v0q4.13,9.62,9.66,20c.24.47.52,1,.77,1.44-.95-.42-1.86-.86-2.78-1.34a84.25,84.25,0,0,1-10.35-6.05s0,0,0,0a104.58,104.58,0,0,1-34.85-40.45,94.91,94.91,0,0,1-9.57-32.81c-3.54-36.23,16.7-71.61,74.95-79.67C312.07,392.87,240.3,429.17,284.24,531.68Z" transform="translate(-173.36 -241.07)"/><path id="Path_4" data-name="Path 4" class="cls-2" d="M296.44,333.77a27.29,27.29,0,0,0-11.38-1.35c6.78-.85,10.54-1.19,14.39.74,5.65,2.83,8.69,6.56,15.37,7.36C305.93,343.33,295.94,343,296.44,333.77Z" transform="translate(-173.36 -241.07)"/><path id="Path_5" data-name="Path 5" class="cls-2" d="M405.37,354.07a167.21,167.21,0,0,1-13.18,61.06c-11.78,29.69-29.83,57.85-47.07,81-.14.25-.33.46-.48.69a559.8,559.8,0,0,1-37.15,44.48c-1.09-1.63-3.41-5.25-6.18-10.42A552.56,552.56,0,0,0,336.75,488c5.18-7,10.45-14.53,15.58-22.37a317.8,317.8,0,0,0,29.11-54.8A154.84,154.84,0,0,0,393.73,354,101.38,101.38,0,0,0,195.15,325.3a97.16,97.16,0,0,1,53.24-13.24,87.32,87.32,0,0,0-41.67-1.53c12.8-8.26,36.47-11.12,56.11-7.33A56.78,56.78,0,0,0,248.18,296c38.79.75,76,17,84.49,39.15,34.48,11.12,44.15,24.74,27.28,58.41,3.52-13.23-15.94-20.94-33.23-18.77a158.78,158.78,0,0,0-22.15,4.55l.23.09s-1.1.21-3.05.73l-.19.05-.22.07a.13.13,0,0,0-.09,0h0l-.08.05c-.28.06-.55.15-.85.24-6.84,2.05-13.62,4.49-20.21,7.12l-.23.08-.39.15-.07,0c-21.26,9.29-49.48,27.37-58,59.62v0a76.93,76.93,0,0,0-2.51,18.29c-6-9.62-11.81-19.69-17-30.07-3.32-6.69-6.42-13.49-9.19-20.38l0-.08c2.88-3.14,5.84-6.24,8.89-9.22C217.9,390,236.78,376.46,257.1,370c5.1-1.65,31.5-8.49,33.77-8.58-2.41,1-10.37,4.42-13.69,6.24a153.22,153.22,0,0,0-26.88,17.78l.33-.12.4-.14h0c4.92-1.87,26.55-12.17,41.38-14.58,10.76-1.75,40.38-6.39,57.52.35-8.77-5.09-18.86-6.62-29.68-8,14.89.76,33.69.07,40.59,15.41,6.54-21.94-9.31-29.6-30.52-34.85-.6,4.23-1.17,8.47-1.74,12.66-1.64-14.49-5-25.1-11.21-29.23-1.64-1.08-3-2-4.19-2.83a89.66,89.66,0,0,0-17.89-7.65c-.07,0-.16,0-.25-.07v0a116.6,116.6,0,0,0-39.87-4.67c4.86,1.31,25.94,5.49,28.69,7.5,0,0-.21,0-.6-.09s-.55,0-.91-.12a6,6,0,0,0-.63-.09,4,4,0,0,1-.69-.06l-1-.08a141,141,0,0,0-70,7,127.69,127.69,0,0,0-16.94,7.89c-.08.06-.18.09-.27.15-3.8,2.11-8.56,4.76-12.68,7.5-.42.3-.84.61-1.27.88-1.77,1.26-3.64,2.59-5.49,3.93a52.22,52.22,0,0,1,5.53-7.21c.6-.7,1.2-1.37,1.86-2a113,113,0,0,1,224.6,17.24Z" transform="translate(-173.36 -241.07)"/></g><g id="Group_4" data-name="Group 4"><g id="Group_2" data-name="Group 2"><path id="Path_6" data-name="Path 6" class="cls-2" d="M599.29,511.69V466.11c0-15-7.35-20.42-19.93-20.42a147.41,147.41,0,0,0-32.5,5.56,32,32,0,0,1,1.31,10v50.47h-23V466.11c0-15-7.19-20.42-19.76-20.42A137.19,137.19,0,0,0,474,450.92v60.76H451V429.2h18.78l.82,5.23c13.88-3.76,29.23-7.52,42.14-7.52a40.56,40.56,0,0,1,22.53,5.39,20.77,20.77,0,0,1,4.58,3.43c17.31-4.74,33.47-8.82,46.88-8.82,9.63,0,19.6,1.47,26.95,8.49,6,5.88,8.49,14.05,8.49,25.81v50.47Z" transform="translate(-173.36 -241.07)"/><path id="Path_7" data-name="Path 7" class="cls-2" d="M711.32,511.69l-.65-4.9c-14,3.43-30.38,7.18-44.76,7.18-8.82,0-18.29-1.14-25-6a25.52,25.52,0,0,1,4.74-42.3c8.65-4.09,20.25-4.42,30.87-4.42,8.65,0,20.25.5,29.89,1.15v-1.47c0-12.91-8.5-17.15-31.69-17.15-9,0-19.93.49-30.38,1.47V428.55c11.6-1,24.66-1.64,35.44-1.64,14.37,0,29.23,1.15,38.39,7.68,9.47,6.69,11.27,16,11.27,28.26v48.83Zm-4.9-34.63c-9.64-.82-19.44-1.31-29.73-1.31-16.82,0-22.7,3.43-22.7,11.1,0,7.19,4.9,11.11,17.8,11.11a169.34,169.34,0,0,0,34.63-4.89Z" transform="translate(-173.36 -241.07)"/><path id="Path_8" data-name="Path 8" class="cls-2" d="M740.55,541.9V429.2h18.79l.81,5.23c13.06-3.43,30.05-7.52,43.61-7.52,10.12,0,20.91,1.8,29.4,8.66,9.8,8,12.9,21.07,12.9,34.78,0,16.17-5.88,29.07-18.29,36.26-10.13,5.72-22.71,7.35-35,7.35a118.17,118.17,0,0,1-29.23-3.76v31.69Zm57.17-96.2a165.43,165.43,0,0,0-34.13,5.22v41.33a80.81,80.81,0,0,0,26.3,4.25c23,0,32.5-7.84,32.5-25.65,0-18-9-25.15-24.67-25.15Z" transform="translate(-173.36 -241.07)"/><path id="Path_9" data-name="Path 9" class="cls-1" d="M865.49,407.64V394.41h13.56v13.23Zm12.58,104.05H866.14V429.2h12.09v82.49Z" transform="translate(-173.36 -241.07)"/><path id="Path_10" data-name="Path 10" class="cls-1" d="M941.43,514c-13.39,0-23-4.9-26.78-14.86a62.11,62.11,0,0,1-3.43-23.52v-36.1H891.79V429.2h19.44l1.8-25h10.26v25h36.09v10.29H923.29v34.3a60.44,60.44,0,0,0,2.12,19.11c2.63,7.84,10.13,10.45,18.13,10.45A124,124,0,0,0,962,501.71V512A163.08,163.08,0,0,1,941.43,514Z" transform="translate(-173.36 -241.07)"/></g><g id="Group_3" data-name="Group 3"><rect id="Rectangle_3" data-name="Rectangle 3" class="cls-2" x="331.96" y="42.6" width="19.46" height="18.11"/><rect id="Rectangle_4" data-name="Rectangle 4" class="cls-2" x="359.38" y="42.6" width="19.46" height="18.11"/><path id="Path_11" data-name="Path 11" class="cls-2" d="M569.19,386.82l41.93-7.93v9.77l-41.93,8Z" transform="translate(-173.36 -241.07)"/><rect id="Rectangle_5" data-name="Rectangle 5" class="cls-2" x="455.26" y="138.42" width="19.46" height="18.11"/><path id="Path_12" data-name="Path 12" class="cls-2" d="M679.49,298.24v33.58c0,.33,0,.68,0,1V333c0,.39,0,.76-.05,1.15,0,.17,0,.35,0,.52s0,.61,0,.9c0,.11,0,.22,0,.32a50.79,50.79,0,0,1-.63,6.28h0a27.84,27.84,0,0,1-7.61,15.78v0l-.27.27A31,31,0,0,1,654.14,366c-.49.09-1,.17-1.49.24s-.81.12-1.2.17c-.81.09-1.62.18-2.43.24a.24.24,0,0,0-.12,0q-1.32.1-2.61.15c-1,0-2,.05-3,.05h-.07c-.81,0-1.68,0-2.55-.05s-1.83-.08-2.78-.15h-.1l-1.24-.1-1.27-.1-.94-.11c-1.09-.12-2.2-.25-3.32-.41-.49-.05-1-.12-1.45-.19a222.57,222.57,0,0,1-24.07-5.14l-.28-.07c-.12,0-.22-.08-.38-.13l-.44-.13c-1.7-.51-4.56-1.43-7.76-2.59A106.86,106.86,0,0,1,570.47,365c-.37.07-.74.12-1.11.17a610.49,610.49,0,0,1-79.73,7.29,41.81,41.81,0,0,1-28.06-11.26c-6.21-6-10.59-13.45-10.59-30V312.38h23.39v23.36c0,15.37,7.58,22.4,20.45,21.81a600,600,0,0,0,73.36-9.82l1.1-.31A18.05,18.05,0,0,0,580,340a.53.53,0,0,1,.06-.1s.11-.15.15-.22A25.06,25.06,0,0,0,584,331l.15-.76a36.71,36.71,0,0,0,.48-6.1v-13H608v18a53.24,53.24,0,0,1-1.59,13.94,150.57,150.57,0,0,0,25.47,4.46c1.28.07,2.59.12,3.8.12s2.34,0,3.42-.14a26.18,26.18,0,0,0,3.16-.47,20.62,20.62,0,0,0,4.53-1.45c5.87-2.81,9-8.66,9-18.79v-28.6Z" transform="translate(-173.36 -241.07)"/><path id="Path_13" data-name="Path 13" class="cls-2" d="M836.15,317.13a26.33,26.33,0,0,0-10.08-12.38h0c-8.4-5.54-18.89-7-31.5-7s-23.31,1.45-31.62,7h0a26.66,26.66,0,0,0-10.12,12.37A43,43,0,0,0,750,333.51a46.78,46.78,0,0,0,1.56,12.57,87.49,87.49,0,0,1-15.22,1.64c-12.87,0-20.38-5.52-20.38-20.89V252.39H692.55v79.45c0,12,2.5,20.39,8.68,26.4,7.52,7.19,17.71,8.69,27.58,8.69a145.07,145.07,0,0,0,33.51-5.22c.2.15.4.3.61.44,0,0,0,0,0,0h0c8.31,5.55,18.91,7,31.62,7a89.26,89.26,0,0,0,17.27-1.38,38.4,38.4,0,0,0,14.26-5.63,26.67,26.67,0,0,0,10-12.38,49,49,0,0,0,0-32.64Zm-61.74,7.73a11.14,11.14,0,0,1,2.42-3.94,14.09,14.09,0,0,1,6.55-3.61,41.76,41.76,0,0,1,11.19-1.22,38.29,38.29,0,0,1,10.06,1.1,13.72,13.72,0,0,1,8.41,5.48A20.2,20.2,0,0,1,815.73,334a23.32,23.32,0,0,1-1.22,8.15,11,11,0,0,1-2.38,3.87,13.73,13.73,0,0,1-6.46,3.57,42.32,42.32,0,0,1-11.1,1.2,41.43,41.43,0,0,1-10.17-1.08,13.85,13.85,0,0,1-8.53-5.43A19.65,19.65,0,0,1,773.15,333a22.85,22.85,0,0,1,1.26-8.16Z" transform="translate(-173.36 -241.07)"/></g></g></g></svg>