<svg width="410" height="673" viewBox="0 0 410 673" fill="none" xmlns="http://www.w3.org/2000/svg">
<g filter="url(#filter0_f_125_4714)">
<path d="M-9.11708 174.58C-19.2433 181.14 -29.3694 187.956 -39.7311 195.112C-41.301 182.333 -42.3214 169.638 -42.6354 156.859C-32.5093 152.258 -22.226 148.084 -11.6288 144.164C-11.1578 143.994 -10.7655 143.824 -10.2945 143.653C24.7939 131.044 62.3943 122.354 102.428 115.879C58.5479 134.367 24.5583 152.855 -9.11708 174.495V174.58Z" fill="url(#paint0_linear_125_4714)"/>
<path d="M-24.5024 275.283C-29.2907 258.584 -33.4511 241.886 -36.748 225.102C-27.7993 218.201 -17.9872 211.215 -7.39 204.228C35.1556 176.454 91.2029 149.787 159.182 139.223C85.865 173.046 38.7666 207.04 1.48026 245.805C-7.70395 255.262 -16.2602 265.145 -24.5024 275.368V275.283Z" fill="url(#paint1_linear_125_4714)"/>
<path d="M206.515 613.092C213.031 629.705 220.645 646.915 229.515 664.892C230.065 666.084 230.771 667.362 231.399 668.64C229.123 667.533 227.003 666.425 224.805 665.147C216.249 660.632 208.007 655.35 200.157 649.556C164.676 623.571 135.868 586.425 117.264 545.104C104.94 518.011 97.0115 489.129 94.4995 460.418C86.1003 366.871 134.219 275.454 272.846 254.666C272.846 254.666 102.035 348.383 206.594 613.177L206.515 613.092Z" fill="url(#paint2_linear_125_4714)"/>
<path d="M235.56 101.992C227.789 98.4988 217.427 97.9025 208.478 98.4989C224.57 96.2837 233.519 95.4318 242.703 100.373C256.205 107.7 263.427 117.327 279.283 119.372C258.089 126.614 234.382 125.847 235.56 101.907V101.992Z" fill="url(#paint3_linear_125_4714)"/>
<path d="M121.268 45.9316C74.9542 43.8017 28.5621 57.5185 -5.42733 80.0958L-39.4952 109.659C-40.9867 111.363 -42.4781 113.067 -43.8911 114.856C-49.1504 121.331 -52.8396 126.443 -57 133.515C-52.6041 130.107 -48.2083 126.614 -43.9694 123.376C-42.9489 122.609 -42.0072 121.843 -40.9867 121.076C-31.2745 114.077 -20.101 107.328 -11.1202 101.903L-10.8434 101.736C-10.6864 101.566 -10.4511 101.48 -10.2156 101.31C3.67849 92.9607 17.2586 86.2301 30.0537 80.9479C108.551 48.4024 173.861 60.5856 196.625 62.8859C197.41 62.9711 198.274 63.0564 199.059 63.1416C199.608 63.3119 200.236 63.3119 200.707 63.3119C201.178 63.3119 201.728 63.5676 202.199 63.5676C202.984 63.738 203.769 63.9083 204.318 63.9083C205.26 64.1639 205.731 64.1639 205.731 64.1639C199.137 58.9668 148.977 48.1468 137.438 44.8241C173.233 43.0349 204.946 47.6356 232.342 56.9221C232.499 57.0925 232.734 57.0925 232.891 57.0925C248.434 62.2895 262.72 69.0201 275.437 76.8583C278.263 78.9883 281.481 81.3738 285.406 84.1853C300.242 94.835 308.17 122.269 312.095 159.67C313.43 148.85 314.842 137.86 316.255 126.954C366.729 140.501 404.408 160.267 388.866 216.923C372.46 177.306 327.716 179.095 292.314 177.136C318.061 180.629 342.081 184.633 362.962 197.754C322.143 180.288 251.652 192.301 226.062 196.816C190.817 203.036 139.322 229.703 127.626 234.559C127.312 234.644 126.998 234.814 126.684 234.9C126.449 235.07 126.135 235.155 125.899 235.24C144.032 218.031 168.131 202.099 189.874 189.319C197.803 184.633 216.721 175.687 222.451 173.217C217.035 173.472 154.237 191.108 142.07 195.368C93.7151 212.067 48.8145 247.168 9.8012 288.745C2.50093 296.412 -4.56385 304.421 -11.3146 312.515V312.685C-4.79935 330.491 2.5794 348.127 10.5077 365.337C22.9103 392.174 36.6473 418.16 51.0124 443.037C51.3264 426.083 53.3674 410.407 56.9783 395.753C77.3091 312.515 144.424 265.826 195.055 241.801C195.134 241.715 195.213 241.715 195.213 241.715C195.527 241.545 195.841 241.375 196.154 241.29C196.39 241.204 196.547 241.119 196.704 241.119C212.403 234.303 228.574 227.999 244.823 222.717C245.529 222.461 246.236 222.29 246.864 222.12C246.864 222.035 247.021 222.035 247.021 222.035H247.335C247.57 221.95 247.728 221.864 247.885 221.864C248.042 221.779 248.198 221.694 248.355 221.694C252.987 220.416 255.577 219.82 255.577 219.82L255.028 219.649C272.297 214.452 289.88 210.363 307.699 207.892C348.832 202.269 395.146 222.205 386.746 256.37C426.859 169.468 403.859 134.282 321.829 105.57C301.576 48.232 213.11 6.39997 120.797 4.44043C132.257 7.84833 149.213 17.8165 155.65 23.0987C108.865 13.301 52.5824 20.7132 22.1254 42.0126C47.794 34.856 83.2749 35.2819 121.268 45.9316Z" fill="url(#paint4_linear_125_4714)"/>
</g>
<defs>
<filter id="filter0_f_125_4714" x="-61" y="0.44043" width="471" height="672.2" filterUnits="userSpaceOnUse" color-interpolation-filters="sRGB">
<feFlood flood-opacity="0" result="BackgroundImageFix"/>
<feBlend mode="normal" in="SourceGraphic" in2="BackgroundImageFix" result="shape"/>
<feGaussianBlur stdDeviation="2" result="effect1_foregroundBlur_125_4714"/>
</filter>
<linearGradient id="paint0_linear_125_4714" x1="174.5" y1="4.44043" x2="174.5" y2="418.62" gradientUnits="userSpaceOnUse">
<stop stop-color="#FFBA21"/>
<stop offset="1" stop-color="white" stop-opacity="0"/>
</linearGradient>
<linearGradient id="paint1_linear_125_4714" x1="174.5" y1="4.44043" x2="174.5" y2="418.62" gradientUnits="userSpaceOnUse">
<stop stop-color="#FFBA21"/>
<stop offset="1" stop-color="white" stop-opacity="0"/>
</linearGradient>
<linearGradient id="paint2_linear_125_4714" x1="174.5" y1="4.44043" x2="174.5" y2="418.62" gradientUnits="userSpaceOnUse">
<stop stop-color="#FFBA21"/>
<stop offset="1" stop-color="white" stop-opacity="0"/>
</linearGradient>
<linearGradient id="paint3_linear_125_4714" x1="174.5" y1="4.44043" x2="174.5" y2="418.62" gradientUnits="userSpaceOnUse">
<stop stop-color="#FFBA21"/>
<stop offset="1" stop-color="white" stop-opacity="0"/>
</linearGradient>
<linearGradient id="paint4_linear_125_4714" x1="174.5" y1="4.44043" x2="174.5" y2="418.62" gradientUnits="userSpaceOnUse">
<stop stop-color="#FFBA21"/>
<stop offset="1" stop-color="white" stop-opacity="0"/>
</linearGradient>
</defs>
</svg>
