<svg width="30" height="29" viewBox="0 0 30 29" fill="none" xmlns="http://www.w3.org/2000/svg">
<g id="medical-kit">
<path id="Vector" d="M24.3621 7.25033H21.3413V5.43783C21.3398 3.7701 19.9882 2.41854 18.3205 2.41699H12.2788C10.6111 2.41854 9.25952 3.7701 9.25797 5.43783V7.25033H6.23714C4.56941 7.25187 3.21786 8.60343 3.21631 10.2712V23.5628C3.21786 25.2306 4.56941 26.5821 6.23714 26.5837H24.3621C26.0299 26.5821 27.3814 25.2306 27.383 23.5628V10.2712C27.3814 8.60343 26.0299 7.25187 24.3621 7.25033ZM10.4663 5.43783C10.4674 4.43725 11.2782 3.62643 12.2788 3.62533H18.3205C19.3211 3.62643 20.1319 4.43725 20.133 5.43783V7.25033H10.4663V5.43783ZM26.1746 23.5628C26.1735 24.5634 25.3627 25.3742 24.3621 25.3753H6.23714C5.23656 25.3742 4.42575 24.5634 4.42464 23.5628V14.5003H26.1746V23.5628ZM26.1746 13.292H4.42464V10.2712C4.42575 9.27058 5.23656 8.45976 6.23714 8.45866H24.3621C25.3627 8.45976 26.1735 9.27058 26.1746 10.2712V13.292ZM12.883 19.9378H14.6955V21.751C14.6957 22.0845 14.9661 22.3547 15.2996 22.3545C15.6331 22.3543 15.904 22.0838 15.9038 21.7503V19.9378H17.7163C18.05 19.9378 18.3205 19.6673 18.3205 19.3337C18.3205 19 18.05 18.7295 17.7163 18.7295H15.9038V16.917C15.9038 16.5833 15.6333 16.3128 15.2996 16.3128C14.966 16.3128 14.6955 16.5833 14.6955 16.917V18.7295H12.883C12.5493 18.7295 12.2788 19 12.2788 19.3337C12.2788 19.6673 12.5493 19.9378 12.883 19.9378Z" fill="#01588C" stroke="#01588C" stroke-width="0.5"/>
</g>
</svg>
