<?xml version="1.0" encoding="UTF-8"?>
<svg xmlns="http://www.w3.org/2000/svg" id="Layer_1" viewBox="0 0 250 250">
  <defs>
    <style>.cls-1{fill:#fdb714;}.cls-1,.cls-2{stroke-width:0px;}.cls-2{fill:#00588c;}</style>
  </defs>
  <path class="cls-1" d="m25.76,115.65c-1.13.68-2.26,1.38-3.42,2.11-.18-1.31-.29-2.62-.33-3.93,1.13-.47,2.28-.91,3.45-1.3.05-.02.1-.04.15-.05,3.91-1.29,8.1-2.18,12.57-2.85-4.89,1.9-8.68,3.8-12.43,6.02Z"/>
  <path class="cls-1" d="m24.04,125.99c-.54-1.72-1-3.43-1.36-5.16.99-.71,2.09-1.43,3.28-2.14,4.74-2.86,10.99-5.59,18.57-6.68-8.18,3.48-13.43,6.96-17.58,10.95-1.02.98-1.98,1.99-2.9,3.03Z"/>
  <path class="cls-2" d="m49.8,160.69h0c.73,1.71,1.58,3.48,2.56,5.32.07.13.14.25.21.38-.25-.11-.49-.23-.74-.36-.95-.47-1.87-1-2.75-1.6,0,0,0,0,0,0-3.96-2.67-7.17-6.49-9.25-10.73-1.37-2.78-2.26-5.75-2.54-8.7-.94-9.61,4.43-19,19.88-21.13,0,0-19.04,9.63-7.38,36.82Z"/>
  <path class="cls-2" d="m53.04,108.19c-.87-.36-2.02-.42-3.02-.36,1.8-.23,2.8-.31,3.82.2,1.5.75,2.31,1.74,4.08,1.95-2.36.75-5.01.67-4.88-1.79Z"/>
  <path class="cls-2" d="m81.94,113.57c0,5.4-1.38,10.9-3.5,16.2-3.13,7.87-7.91,15.35-12.49,21.48-.04.07-.09.12-.13.18-3.8,5.07-7.43,9.2-9.86,11.8-.29-.43-.91-1.4-1.64-2.76,2.43-2.66,5.87-6.62,9.4-11.38,1.38-1.86,2.77-3.85,4.13-5.93,2.95-4.52,5.71-9.48,7.72-14.53,2.01-5.04,3.27-10.18,3.26-15.05,0-7.43-3.01-14.14-7.87-19.02-4.87-4.87-11.58-7.87-19.02-7.87s-14.14,3.01-19.01,7.87c-3.14,3.13-5.5,7.03-6.79,11.39,3.79-2.32,8.96-3.73,14.13-3.51-4.24-1.09-8.19-1.14-11.06-.41,3.4-2.19,9.67-2.95,14.89-1.94-.72-.54-2.61-1.57-3.89-1.92,10.29.2,20.15,4.5,22.41,10.39,9.15,2.95,11.71,6.56,7.24,15.49.93-3.51-4.23-5.56-8.82-4.98-1.98.26-3.95.67-5.88,1.21l.06.02s-.29.06-.81.19c-.02,0-.03,0-.05.01-.02,0-.04.01-.06.02,0,0-.02,0-.02,0h0s-.01,0-.02.01c-.07.01-.15.04-.23.06-1.81.54-3.61,1.19-5.36,1.89-.02,0-.04.01-.06.02-.03.01-.07.03-.1.04,0,0-.01,0-.02,0-5.64,2.46-13.13,7.26-15.39,15.82h0c-.4,1.51-.63,3.12-.67,4.86-1.6-2.55-3.13-5.22-4.51-7.98-.88-1.77-1.7-3.58-2.43-5.41v-.02c.76-.83,1.54-1.66,2.35-2.45,4.35-4.27,9.36-7.87,14.75-9.59,1.36-.44,8.35-2.25,8.96-2.27-.64.26-2.75,1.17-3.63,1.66-2.42,1.32-5.12,2.95-7.13,4.72.03,0,.06-.02.09-.03.04-.01.07-.03.11-.04h0c1.3-.5,7.04-3.23,10.98-3.87,2.85-.46,10.71-1.69,15.26.09-2.33-1.35-5-1.76-7.87-2.12,3.95.2,8.94.02,10.77,4.09,1.74-5.82-2.47-7.85-8.1-9.24-.16,1.12-.31,2.25-.46,3.36-.43-3.84-1.32-6.66-2.98-7.75-.44-.29-.8-.54-1.11-.75-1.41-.8-3.01-1.5-4.75-2.03-.02,0-.04,0-.07-.02h0c-3.05-.95-6.59-1.43-10.58-1.25,1.29.34,6.88,1.45,7.61,1.99,0,0-.06,0-.16-.02-.07,0-.15-.01-.24-.03-.06,0-.11-.02-.17-.02s-.12,0-.18-.01c-.09,0-.18-.02-.27-.02-2.54-.23-9.82-1.49-18.57,1.85-1.43.54-2.94,1.23-4.49,2.09-.02.02-.05.02-.07.04-1.01.56-2.27,1.26-3.36,1.99-.11.08-.22.16-.34.23-.47.33-.97.69-1.45,1.05.46-.73.87-1.25,1.46-1.92.16-.18.32-.36.49-.54,2.19-14.38,14.61-25.4,29.61-25.4,16.56,0,29.97,13.41,29.97,29.97Z"/>
  <path class="cls-2" d="m133.38,155.38v-12.09c0-3.99-1.95-5.42-5.29-5.42-2.43,0-5.5.69-8.62,1.47.26.78.35,1.69.35,2.64v13.39h-6.11v-12.09c0-3.99-1.91-5.42-5.24-5.42-2.51,0-5.63.69-8.32,1.39v16.12h-6.11v-21.88h4.98l.22,1.39c3.68-1,7.76-1.99,11.18-1.99,2.04,0,4.2.26,5.98,1.43.52.3.87.56,1.21.91,4.59-1.26,8.88-2.34,12.44-2.34,2.56,0,5.2.39,7.15,2.25,1.6,1.56,2.25,3.73,2.25,6.85v13.39h-6.07Z"/>
  <path class="cls-2" d="m163.1,155.38l-.17-1.3c-3.73.91-8.06,1.91-11.87,1.91-2.34,0-4.85-.3-6.63-1.6-1.65-1.17-2.43-3.08-2.43-5.29,0-2.47,1.08-4.77,3.68-5.94,2.3-1.08,5.37-1.17,8.19-1.17,2.3,0,5.37.13,7.93.3v-.39c0-3.42-2.25-4.55-8.41-4.55-2.38,0-5.29.13-8.06.39v-4.42c3.08-.26,6.54-.43,9.4-.43,3.81,0,7.76.3,10.18,2.04,2.51,1.78,2.99,4.25,2.99,7.5v12.96h-4.81Zm-1.3-9.19c-2.56-.22-5.16-.35-7.89-.35-4.46,0-6.02.91-6.02,2.95,0,1.91,1.3,2.95,4.72,2.95,2.86,0,6.28-.65,9.19-1.3v-4.25Z"/>
  <path class="cls-2" d="m170.85,163.4v-29.9h4.98l.22,1.39c3.47-.91,7.97-1.99,11.57-1.99,2.69,0,5.55.48,7.8,2.3,2.6,2.12,3.42,5.59,3.42,9.23,0,4.29-1.56,7.71-4.85,9.62-2.69,1.52-6.02,1.95-9.27,1.95-2.6,0-5.2-.35-7.76-1v8.41h-6.11Zm15.16-25.52c-2.73,0-6.02.69-9.06,1.39v10.96c2.08.74,4.55,1.13,6.98,1.13,6.11,0,8.62-2.08,8.62-6.8s-2.38-6.67-6.54-6.67Z"/>
  <path class="cls-1" d="m204,127.78v-3.51h3.6v3.51h-3.6Zm3.34,27.6h-3.16v-21.88h3.21v21.88h-.04Z"/>
  <path class="cls-1" d="m224.15,155.99c-3.55,0-6.11-1.3-7.11-3.94-.69-1.73-.91-3.68-.91-6.24v-9.58h-5.16v-2.73h5.16l.48-6.63h2.73v6.63h9.58v2.73h-9.58v9.1c0,1.95.09,3.73.56,5.07.69,2.08,2.69,2.77,4.81,2.77,1.73,0,3.47-.22,4.9-.43v2.73c-1.6.22-3.68.52-5.46.52Z"/>
  <rect class="cls-2" x="108.45" y="94.9" width="5.16" height="4.8"/>
  <rect class="cls-2" x="115.73" y="94.9" width="5.16" height="4.8"/>
  <polygon class="cls-2" points="125.4 122.26 136.52 120.15 136.52 122.74 125.4 124.87 125.4 122.26"/>
  <rect class="cls-2" x="141.16" y="120.32" width="5.16" height="4.8"/>
  <path class="cls-2" d="m154.66,98.76v8.91c0,.09,0,.18,0,.26v.04c0,.1,0,.2-.01.31,0,.04,0,.09,0,.14,0,.08,0,.16-.01.24,0,.03,0,.06,0,.09-.03.59-.08,1.15-.17,1.66h0c-.3,1.75-.94,3.11-2.02,4.19h0s-.04.05-.07.08c-1.26,1.2-2.8,1.8-4.42,2.08-.13.02-.26.04-.39.06-.11.02-.22.03-.32.04-.22.02-.43.05-.65.06,0,0-.02,0-.03,0-.23.02-.46.03-.69.04-.27,0-.54.01-.81.01h-.02c-.22,0-.44,0-.68-.01-.24,0-.48-.02-.74-.04h-.03c-.11,0-.22-.02-.33-.03s-.22-.02-.34-.03c-.08,0-.17-.02-.25-.03-.29-.03-.58-.07-.88-.11-.13-.01-.26-.03-.39-.05-2.1-.3-4.28-.82-6.38-1.36-.02,0-.04-.01-.08-.02-.03,0-.06-.02-.1-.04-.04-.01-.08-.02-.12-.04-.45-.13-1.21-.38-2.06-.69-2.19.99-4.76,1.57-6.93,1.92-.1.02-.2.03-.3.04-8.34,1.35-17.69,1.93-21.15,1.93-2.61,0-5.46-1.08-7.44-2.99-1.65-1.59-2.81-3.57-2.81-7.97v-4.98h6.2v6.2c0,4.08,2.01,5.94,5.42,5.79,5.64-.26,13.66-1.51,19.46-2.61.1-.03.19-.05.29-.08,1.6-.44,2.37-1.27,2.85-1.97,0,0,.01-.02.02-.03.01-.02.03-.04.04-.06.53-.77.83-1.57,1-2.3.01-.07.03-.13.04-.2.09-.49.13-1.03.13-1.62v-3.45h6.21v4.78c0,1.4-.13,2.63-.42,3.7,2.22.55,4.64,1.05,6.76,1.18.34.02.69.03,1.01.03s.62,0,.91-.04c.29-.03.57-.07.84-.13.44-.09.84-.22,1.2-.39,1.56-.74,2.4-2.3,2.4-4.98v-7.59h6.26Z"/>
  <path class="cls-2" d="m196.22,103.77c-.53-1.31-1.4-2.45-2.67-3.28h0c-2.23-1.47-5.01-1.86-8.36-1.86s-6.19.39-8.39,1.86c0,0,0,0,0,0-1.27.83-2.15,1.97-2.69,3.28-.54,1.31-.75,2.79-.75,4.35,0,1.18.12,2.3.41,3.33-1.45.26-2.83.44-4.04.44-3.41,0-5.41-1.46-5.41-5.54v-19.75h-6.2v21.08c0,3.19.66,5.41,2.3,7,2,1.91,4.7,2.31,7.32,2.31s5.64-.58,8.89-1.39c.05.04.11.08.16.12,0,0,0,0,0,0,2.2,1.47,5.02,1.86,8.39,1.86,1.66,0,3.19-.09,4.58-.37,1.4-.27,2.66-.74,3.78-1.49,1.26-.83,2.12-1.97,2.66-3.28.53-1.31.75-2.78.75-4.34s-.21-3.01-.74-4.32Zm-16.38,2.05c.16-.42.37-.76.64-1.04.4-.42.96-.74,1.74-.96.78-.22,1.77-.33,2.97-.32,1.06,0,1.95.1,2.67.29,1.09.3,1.77.77,2.23,1.45.46.69.71,1.67.71,3.01,0,.89-.11,1.6-.32,2.16-.16.42-.36.75-.63,1.03-.4.42-.94.73-1.71.95-.77.22-1.75.32-2.94.32-1.07,0-1.97-.1-2.7-.29-1.1-.29-1.79-.76-2.26-1.44-.47-.69-.72-1.66-.72-2.99,0-.89.12-1.61.33-2.17Z"/>
</svg>
