<svg width="28" height="28" viewBox="0 0 28 28" fill="none" xmlns="http://www.w3.org/2000/svg">
<g id="shopping-bag-03">
<path id="Icon" d="M18.6662 9.33333C18.6662 10.571 18.1745 11.758 17.2994 12.6332C16.4242 13.5083 15.2372 14 13.9995 14C12.7619 14 11.5749 13.5083 10.6997 12.6332C9.82454 11.758 9.33287 10.571 9.33287 9.33333M4.23829 8.63495L3.42163 18.4349C3.24619 20.5402 3.15847 21.5929 3.51434 22.4049C3.82701 23.1183 4.36874 23.7071 5.05376 24.0779C5.83342 24.5 6.88971 24.5 9.00229 24.5H18.9968C21.1094 24.5 22.1657 24.5 22.9453 24.0779C23.6303 23.7071 24.1721 23.1183 24.4847 22.4049C24.8406 21.5929 24.7529 20.5402 24.5775 18.4349L23.7608 8.63495C23.6098 6.82354 23.5344 5.91784 23.1332 5.23233C22.78 4.62868 22.254 4.1447 21.6231 3.84282C20.9067 3.5 19.9978 3.5 18.1801 3.5L9.81895 3.5C8.00127 3.5 7.09243 3.5 6.37598 3.84282C5.74507 4.1447 5.21909 4.62868 4.86585 5.23233C4.46472 5.91784 4.38925 6.82354 4.23829 8.63495Z" stroke="#01588C" stroke-width="2" stroke-linecap="round" stroke-linejoin="round"/>
</g>
</svg>
