<svg width="28" height="28" viewBox="0 0 28 28" fill="none" xmlns="http://www.w3.org/2000/svg">
<g id="shopping-cart-01">
<path id="Icon" d="M2.33331 2.33301H3.85717C4.14419 2.33301 4.2877 2.33301 4.40319 2.38579C4.50497 2.4323 4.59122 2.5071 4.65165 2.60128C4.72024 2.70814 4.74053 2.85021 4.78112 3.13435L5.33331 6.99967M5.33331 6.99967L6.56052 16.0196C6.71625 17.1643 6.79412 17.7366 7.06776 18.1674C7.30889 18.547 7.65458 18.8489 8.06323 19.0366C8.52699 19.2497 9.10458 19.2497 10.2598 19.2497H20.244C21.3436 19.2497 21.8934 19.2497 22.3428 19.0518C22.739 18.8774 23.0788 18.5962 23.3243 18.2396C23.6027 17.8352 23.7056 17.2951 23.9114 16.2149L25.4556 8.10765C25.528 7.72745 25.5642 7.53735 25.5118 7.38876C25.4657 7.25841 25.3749 7.14864 25.2555 7.07903C25.1193 6.99967 24.9258 6.99967 24.5388 6.99967H5.33331ZM11.6666 24.4997C11.6666 25.144 11.1443 25.6663 10.5 25.6663C9.85565 25.6663 9.33331 25.144 9.33331 24.4997C9.33331 23.8553 9.85565 23.333 10.5 23.333C11.1443 23.333 11.6666 23.8553 11.6666 24.4997ZM21 24.4997C21 25.144 20.4776 25.6663 19.8333 25.6663C19.189 25.6663 18.6666 25.144 18.6666 24.4997C18.6666 23.8553 19.189 23.333 19.8333 23.333C20.4776 23.333 21 23.8553 21 24.4997Z" stroke="#01588C" stroke-width="2" stroke-linecap="round" stroke-linejoin="round"/>
</g>
</svg>
